<svg xmlns="http://www.w3.org/2000/svg" viewBox="0 0 557.4 569.8"><path d="M378.6 355.9l65.6 11.6L374.7 0l-311 317.6 269.5-201.7c15.1 80 30.3 160 45.4 240" fill="#2E3590"/><path fill="#0D122F" d="M378.2 18.6L374.7 0l-311 317.6 81.4-60.9zm172.7 450.1L401.5 41.3l64.8 347.6c-89.6-15.9-179.2-31.8-268.8-47.6l-70.1 52.4c141.2 25 282.4 50 423.5 75"/><path fill="#2E3590" d="M0 388.7l471.4 181.1 86-82.4-467-82.7 245-183.4-13.9-73.2z"/><path fill="#0D122F" d="M0 388.7l16.8 6.4 454.6 174.7 7.5-7.1L25.7 388.5l299-223.7-3.2-16.7L8.9 382z"/></svg>